<svg xmlns="http://www.w3.org/2000/svg" width="256" height="256" viewBox="0 0 100 100"><rect width="100" height="100" rx="20" fill="#555555"></rect><path fill="#fff" d="M40.13 49.51L40.13 49.51Q40.13 45.03 38.77 41.84Q37.40 38.66 35.05 36.63Q32.71 34.60 29.59 33.65Q26.48 32.71 22.91 32.71L22.91 32.71Q20.67 32.71 19.02 32.85Q17.38 32.99 15.98 33.27L15.98 33.27L15.98 66.59Q17.66 67.01 19.58 67.15Q21.51 67.29 23.54 67.29L23.54 67.29Q31.80 67.29 35.96 62.81Q40.13 58.33 40.13 49.51ZM45.94 49.51L45.94 49.51Q45.94 55.25 44.36 59.48Q42.79 63.72 39.89 66.52Q36.98 69.32 32.85 70.69Q28.72 72.05 23.61 72.05L23.61 72.05Q21.37 72.05 18.57 71.88Q15.77 71.70 13.25 70.93L13.25 70.93Q10.31 70.02 10.31 67.71L10.31 67.71L10.31 31.73Q10.31 30.61 10.87 30.02Q11.43 29.42 12.62 29.07L12.62 29.07Q14.79 28.37 17.52 28.16Q20.25 27.95 22.98 27.95L22.98 27.95Q28.09 27.95 32.32 29.31Q36.56 30.68 39.57 33.38Q42.58 36.07 44.26 40.09Q45.94 44.12 45.94 49.51ZM59.03 71.63L59.03 71.63Q55.95 71.63 55.95 69.11L55.95 69.11L55.95 29.56Q57.21 28.30 59.73 28.30L59.73 28.30Q61.41 28.30 62.60 28.96Q63.79 29.63 64.77 31.38L64.77 31.38L78.14 53.78Q78.98 55.25 79.89 56.89Q80.80 58.54 81.64 60.19Q82.48 61.83 83.22 63.27Q83.95 64.70 84.44 65.68L84.44 65.68L84.72 65.61Q84.16 59.94 84.06 54.20Q83.95 48.46 83.95 43L83.95 43L83.95 28.86Q84.37 28.72 85.07 28.54Q85.77 28.37 86.61 28.37L86.61 28.37Q89.69 28.37 89.69 30.89L89.69 30.89L89.69 70.51Q89.06 71.07 88.08 71.39Q87.10 71.70 85.91 71.70L85.91 71.70Q84.23 71.70 83.04 71.03Q81.85 70.37 80.87 68.62L80.87 68.62L67.57 46.22Q66.73 44.82 65.78 43.14Q64.84 41.46 63.97 39.85Q63.09 38.24 62.36 36.77Q61.62 35.30 61.13 34.32L61.13 34.32L60.85 34.39Q61.20 37.75 61.41 42.05Q61.62 46.36 61.62 50.21L61.62 50.21L61.62 71.14Q61.27 71.28 60.53 71.45Q59.80 71.63 59.03 71.63Z"></path></svg>